<?xml version="1.0" encoding="UTF-8"?>
<svg width="325px" height="198px" viewBox="0 0 325 198" version="1.1" xmlns="http://www.w3.org/2000/svg" xmlns:xlink="http://www.w3.org/1999/xlink">
    <!-- Generator: Sketch 58 (84663) - https://sketch.com -->
    <title>cnrs</title>
    <desc>Created with Sketch.</desc>
    <defs>
        <linearGradient x1="16.6672535%" y1="63.8024689%" x2="97.3888204%" y2="27.5483751%" id="linearGradient-1">
            <stop stop-color="#CB9500" offset="10.67%"></stop>
            <stop stop-color="#C79200" offset="19.4%"></stop>
            <stop stop-color="#BA8900" offset="31.57%"></stop>
            <stop stop-color="#A47A00" offset="45.77%"></stop>
            <stop stop-color="#846402" offset="61.49%"></stop>
            <stop stop-color="#594405" offset="78.25%"></stop>
            <stop stop-color="#000000" offset="94.04%"></stop>
            <stop stop-color="#000000" offset="99.47%"></stop>
        </linearGradient>
        <linearGradient x1="20.7363091%" y1="76.1693476%" x2="78.3317186%" y2="26.659289%" id="linearGradient-2">
            <stop stop-color="#CB9500" offset="10.67%"></stop>
            <stop stop-color="#C79200" offset="19.4%"></stop>
            <stop stop-color="#BA8900" offset="31.57%"></stop>
            <stop stop-color="#A47A00" offset="45.77%"></stop>
            <stop stop-color="#846402" offset="61.49%"></stop>
            <stop stop-color="#594405" offset="78.25%"></stop>
            <stop stop-color="#000000" offset="94.04%"></stop>
            <stop stop-color="#000000" offset="99.47%"></stop>
        </linearGradient>
        <linearGradient x1="62.2550436%" y1="31.1448385%" x2="30.2256667%" y2="86.2628337%" id="linearGradient-3">
            <stop stop-color="#CB9500" offset="10.67%"></stop>
            <stop stop-color="#C79200" offset="18.88%"></stop>
            <stop stop-color="#BA8900" offset="30.32%"></stop>
            <stop stop-color="#A47A00" offset="43.66%"></stop>
            <stop stop-color="#846402" offset="58.44%"></stop>
            <stop stop-color="#594405" offset="74.2%"></stop>
            <stop stop-color="#000000" offset="89.04%"></stop>
        </linearGradient>
        <linearGradient x1="89.761335%" y1="38.4337748%" x2="2.33774223%" y2="66.8110674%" id="linearGradient-4">
            <stop stop-color="#CB9500" offset="10.67%"></stop>
            <stop stop-color="#C79200" offset="19.4%"></stop>
            <stop stop-color="#BA8900" offset="31.57%"></stop>
            <stop stop-color="#A47A00" offset="45.77%"></stop>
            <stop stop-color="#846402" offset="61.49%"></stop>
            <stop stop-color="#594405" offset="78.25%"></stop>
            <stop stop-color="#000000" offset="94.04%"></stop>
            <stop stop-color="#000000" offset="99.47%"></stop>
        </linearGradient>
    </defs>
    <g id="cnrs" stroke="none" stroke-width="1" fill="none" fill-rule="evenodd">
        <g id="cnrs-logo" fill-rule="nonzero">
            <g id="g339" transform="translate(0.321130, 0.763540)">
                <path d="M259.03,156.47 C258.4,156.07 257.57,156.35 257.3,157.04 C248.42,179.52 237.62,188.78 222.58,186.6 C205.23,184.09 183.32,168.34 158.01,145.6 C166.21,133.49 176.36,115.13 181.46,105.58 C187.45,94.35 194.61,82.97 208.49,64.74 C223.33,45.26 238.34,33.29 249.67,31.91 C255.85,31.16 260.68,32.77 264.45,36.84 C270.24,43.08 272.74,54.13 273.49,65.92 C273.52,66.43 273.99,66.78 274.48,66.67 C279.09,65.66 283.86,65.14 288.77,65.14 C289.91,65.14 291.05,65.17 292.21,65.22 C298.01,65.5 303.97,66.47 310.07,68.1 C310.76,68.28 311.43,67.72 311.32,67.02 C309.47,54.52 302.21,39.73 292.36,32.85 C280.89,24.83 265.42,21.72 248.32,24.73 C233.63,27.32 209.96,36.91 180.6,67.87 C166.26,82.99 145.48,112.13 136.21,125.25 C133.61,122.73 130.95,120.13 128.2,117.39 C116.91,106.17 107.86,96.15 100.82,87.15 C148.49,71.75 173.43,44.59 170.14,23.1 C168.96,15.42 162.53,7.75 153.4,3.63 C145.33,-0.02 128.48,-0.56 117.81,1.22 C107.31,2.97 91.77,8.01 77.35,22.08 C64.87,34.26 58.69,47.4 58.34,58.68 C57.76,77.49 69.59,92.49 69.59,92.49 C50.99,100.5 31.76,108.78 18.74,120.99 C1.73,136.93 -0.3,153.63 1,164.83 C2.82,180.59 14.97,188.39 22.16,191.74 C33.93,197.23 60.53,196.75 71.6,195.04 C97.52,191.02 121.5,181.84 142.69,162.48 C169.83,181.81 195.54,192.7 219.6,195.48 C236.61,197.44 254.31,193.97 266.68,187.92 C273.89,184.39 282.4,178.09 290.26,166.97 C290.61,166.48 290.26,165.8 289.66,165.78 C278.31,165.38 268.39,162.36 259.03,156.47 L259.03,156.47 Z M89.48,22.82 C98.37,14.13 109.17,10.56 120.89,8.98 C127.52,8.08 132.73,8.86 137.3,11.43 C141.61,13.85 146.41,20.88 146.83,25.63 C147.44,32.6 147.27,38.87 139.36,49.08 C126.44,65.75 108.28,75.53 96.24,81.07 C87.1,68.3 82.37,57.69 81.4,48.61 C80.8,39.69 81.91,30.21 89.48,22.82 Z M69.18,187.54 C59.94,188.92 52.19,187.27 46.13,182.62 C40.28,178.13 36.4,170.93 35.47,162.85 C32.47,136.6 43.86,117.03 74.14,99.29 C81.95,110.69 93.6,123.86 110.98,138.04 C114.73,141.1 118.3,143.96 121.75,146.69 C104.46,170.76 86.01,185.02 69.18,187.54 L69.18,187.54 Z" id="path263" fill="#CB9500"></path>
                <path d="M50.57,117.08 C56.62,110.91 66.68,103.83 74.14,99.3 C74.14,99.3 72.73,97.22 71.79,95.84 C70.97,94.63 69.59,92.52 69.59,92.52 L69.43,92.59 C62.76,95.46 46.69,102.46 40.06,106.12 L50.57,117.08 Z" id="path282" fill="url(#linearGradient-1)" opacity="0.8199999"></path>
                <path d="M142.66,162.47 C142.66,162.47 137.78,159.14 131.88,154.72 C125.98,150.3 121.83,146.74 121.83,146.74 C114.46,157 106.89,165.46 99.31,171.99 L109.99,183.98 C121.47,178.82 132.4,171.85 142.66,162.47 L142.66,162.47 Z" id="path301" fill="url(#linearGradient-2)" opacity="0.8199999"></path>
                <path d="M158.01,145.6 C165.5,134.54 174.68,118.04 180,108.26 L160.66,92.03 C150.99,104.6 141.67,117.69 136.28,125.33 C136.28,125.33 141.78,130.84 147.65,136.24 C153.37,141.5 158.01,145.6 158.01,145.6 L158.01,145.6 Z" id="path318" fill="url(#linearGradient-3)" opacity="0.8199999"></path>
                <path d="M128.77,75.52 L122.54,65.57 C113.22,72.72 103.6,77.68 96.26,81.06 C97.67,83.04 99.18,85.06 100.81,87.14 C111.24,83.78 120.58,79.84 128.77,75.52 L128.77,75.52 Z" id="path337" fill="url(#linearGradient-4)" opacity="0.8199999"></path>
            </g>
            <g id="g353" transform="translate(253.321130, 79.763540)">
                <path d="M34.39,0.48 C33.76,0.44 33.13,0.419979784 32.51,0.419979784 C23.82,0.41 15.96,4.11 9.1,11.44 C2.87,18.1 0.77,23.46 0.789858701,29.94 C0.8,33.4 1.41,37.18 2.32,41.65 C4.03,50.05 9.02,58.17 16.01,63.91 C21.36,68.31 27.33,70.55 33.62,70.5905084 C36.88,70.61 40.22,70.04 43.61,68.87 C54.56,65.09 65.03,54.27 69.07,42.57 C70.35,38.86 70.97,35.26 70.960119,31.83 C70.93,23.44 67.1,16.09 59.78,10.84 C50.9,4.46 42.36,0.97 34.39,0.48 L34.39,0.48 Z" id="path341" fill="#000000"></path>
                <g id="g351" transform="translate(7.000000, 19.000000)" fill="#FFFFFF">
                    <path d="M14.89,16.62 L12.48,16.62 L12.48,16.69 C12.46,17.16 12.18,21.25 8.52,21.25 C5.25,21.25 3.58,18.32 3.58,12.53 C3.58,6.74 5.24,3.81 8.52,3.81 C12.25,3.81 12.47,8.19 12.48,8.37 L12.48,8.44 L14.89,8.44 C15.11,8.44 15.33,8.35 15.48,8.19 C15.63,8.04 15.7,7.84 15.69,7.63 C15.64,6.49 15.06,0.83 8.48,0.83 C3.16,0.83 0.35,4.87 0.35,12.52 C0.35,20.18 3.16,24.23 8.48,24.23 C14.81,24.23 15.6,19.06 15.69,17.47 C15.71,17.25 15.63,17.04 15.48,16.88 C15.33,16.71 15.11,16.62 14.89,16.62 L14.89,16.62 Z" id="path343"></path>
                    <path d="M52.29,11.14 L52.29,11.14 L50.22,10.24 C48.23,9.36 47.52,8.51 47.52,6.98 C47.52,4.99 48.98,3.65 51.15,3.65 C52.43,3.65 53.49,3.91 54.77,5.22 L54.84,5.29 L55.95,4.28 C56.59,3.69 56.41,3.15 56.14,2.81 C55.06,1.54 53.33,0.84 51.26,0.84 C47.27,0.84 44.37,3.44 44.37,7.03 C44.37,10.56 46.59,12.03 48.99,13.1 L51.11,14.04 C53.24,14.99 54.25,15.81 54.25,17.85 C54.25,20.64 51.73,21.38 50.24,21.38 C48.96,21.38 47.53,21.11 45.78,19.12 L45.71,19.04 L44.56,20.05 C43.97,20.57 43.96,21.02 44.54,21.76 C46.13,23.8 48.45,24.23 50.12,24.23 C53.74,24.23 57.4,22.01 57.4,17.76 C57.39,14.09 55.35,12.46 52.29,11.14 L52.29,11.14 Z" id="path345"></path>
                    <path d="M31.85,7.53 C31.85,3.92 28.92,0.86 25.31,0.86 C23.61,0.86 22.06,1.51 20.9,2.57 L20.9,1.33 L18.72,1.33 C18.06,1.33 17.81,1.76 17.81,2.25 L17.81,23.33 C17.81,23.92 18.17,24.24 18.71,24.24 L20.89,24.24 C20.89,24.24 20.89,7.67 20.89,7.66 C20.89,5.48 22.66,3.72 24.83,3.72 C27.01,3.72 28.77,5.49 28.77,7.66 C28.77,7.66 28.77,24.24 28.77,24.24 L30.93,24.24 C31.53,24.24 31.84,23.91 31.84,23.33 C31.85,23.32 31.85,7.55 31.85,7.53 L31.85,7.53 Z" id="path347"></path>
                    <path d="M44.33,2.43 C44.44,2.29 44.51,2.11 44.51,1.92 C44.51,1.56 44.27,1.25 43.95,1.14 C43.32,0.93 42.65,0.81 41.95,0.81 C40.25,0.81 38.7,1.46 37.54,2.52 L37.54,1.28 L35.36,1.28 C34.7,1.28 34.45,1.71 34.45,2.2 L34.45,23.28 C34.45,23.87 34.81,24.19 35.35,24.19 L37.53,24.19 C37.53,24.19 37.53,7.62 37.53,7.62 C37.53,5.44 39.3,3.68 41.47,3.68 C42.04,3.68 42.58,3.8 43.07,4.02 L44.33,2.43 Z" id="path349"></path>
                </g>
            </g>
        </g>
    </g>
</svg>